<svg width="52" height="73" viewBox="0 0 52 73" fill="none" xmlns="http://www.w3.org/2000/svg">
<path d="M46.9902 1.5C48.9231 1.50012 50.4902 3.06708 50.4902 5V67.96C50.4902 69.8929 48.9231 71.4598 46.9902 71.46H40.0098C38.0769 71.4598 36.5098 69.8929 36.5098 67.96V36.1797H21.7803V67.96C21.7803 69.8929 20.2131 71.4598 18.2803 71.46H11.3896C9.45681 71.4598 7.88965 69.8928 7.88965 67.96V36.1797H5C3.06701 36.1797 1.5 34.6127 1.5 32.6797V27.5C1.5 25.567 3.067 24 5 24H7.88965V20.0996C7.88969 15.8931 8.53541 12.3655 9.93848 9.61914L10.2061 9.10645C11.5788 6.58391 13.4806 4.67718 15.9189 3.45801C18.4406 2.13718 21.3182 1.50003 24.5098 1.5C25.3851 1.5 26.3169 1.5311 27.3037 1.59277L27.3027 1.59375C27.7764 1.6217 28.2449 1.66129 28.708 1.71387C30.4882 1.91596 31.6795 3.4525 31.6797 5.10938V10.8301C31.6796 12.7519 30.122 14.3095 28.2002 14.3096H26.3096C24.0433 14.3096 23.1154 14.9198 22.7412 15.5527C22.1457 16.5605 21.7803 18.0352 21.7803 20.0996V24H36.5098V5C36.5098 3.06709 38.0769 1.50013 40.0098 1.5H46.9902Z" stroke="white" stroke-width="3"/>
</svg>
