<svg width="89" height="126" viewBox="0 0 89 126" fill="none" xmlns="http://www.w3.org/2000/svg">
<path d="M83.4004 1.5C85.3332 1.50021 86.9004 3.06713 86.9004 5V120.972C86.9004 122.905 85.3332 124.471 83.4004 124.472H67.7275C65.7945 124.472 64.2275 122.905 64.2275 120.972V61.2607H35.4609V120.972C35.4609 122.905 33.8937 124.471 31.9609 124.472H16.4492C14.5162 124.472 12.9492 122.905 12.9492 120.972V61.2607H5C3.067 61.2607 1.5 59.6937 1.5 57.7607V45.3135C1.5 43.3805 3.067 41.8135 5 41.8135H12.9492V33.6377C12.9492 26.2013 14.0926 20.0847 16.4932 15.3906L16.7207 14.9463C19.0884 10.4078 22.3957 7.03229 26.6504 4.89746C30.9837 2.61677 35.9608 1.50004 41.5391 1.5C43.0794 1.5 44.7239 1.55489 46.4707 1.66406L46.4697 1.66504C47.7626 1.74122 49.0316 1.86886 50.2764 2.0498C52.0032 2.30084 53.1981 3.79665 53.1982 5.46582V18.5762C53.1982 20.5092 51.6312 22.0762 49.6982 22.0762H44.7646C40.5504 22.0762 38.3393 23.2087 37.3477 24.8867C36.1346 26.9396 35.461 29.8157 35.4609 33.6377V41.8135H64.2275V5C64.2275 3.067 65.7945 1.5 67.7275 1.5H83.4004Z" fill="white" stroke="white" stroke-width="3"/>
</svg>
