<svg width="40" height="41" viewBox="0 0 40 41" fill="none" xmlns="http://www.w3.org/2000/svg">
<rect y="1" width="40" height="40" rx="10" fill="black"/>
<path d="M11.42 17.18H24.95V20.24H11.42V17.18ZM20.48 9.83V12.95C20.26 12.95 20.04 12.95 19.82 12.95C19.62 12.95 19.41 12.95 19.19 12.95C18.37 12.95 17.83 13.17 17.57 13.61C17.31 14.05 17.18 14.64 17.18 15.38V32H13.55V15.38C13.55 14.02 13.76 12.93 14.18 12.11C14.6 11.27 15.19 10.66 15.95 10.28C16.71 9.88 17.59 9.68 18.59 9.68C18.87 9.68 19.17 9.69 19.49 9.71C19.83 9.73 20.16 9.77 20.48 9.83ZM26.75 32H23.09V9.68H26.75V32Z" fill="white"/>
</svg>
